<?xml version="1.0" standalone="no"?>
<!DOCTYPE svg PUBLIC "-//W3C//DTD SVG 20010904//EN"
 "http://www.w3.org/TR/2001/REC-SVG-20010904/DTD/svg10.dtd">
<svg version="1.0" xmlns="http://www.w3.org/2000/svg"
 width="846.000000pt" height="846.000000pt" viewBox="0 0 846.000000 846.000000"
 preserveAspectRatio="xMidYMid meet">
<metadata>
Created by potrace 1.11, written by Peter Selinger 2001-2013
</metadata>
<g transform="translate(0.000000,846.000000) scale(0.100000,-0.100000)"
fill="#000000" stroke="none">
<path d="M3546 7628 c-1090 -1086 -1386 -1381 -1386 -1385 0 -2 61 -65 135
-139 74 -75 135 -139 135 -143 0 -4 -53 -59 -117 -123 -65 -64 -126 -125 -137
-136 -18 -21 -17 -22 132 -172 82 -82 147 -151 143 -153 -3 -2 -354 -3 -779
-2 -426 0 -775 -2 -777 -5 -2 -3 118 -127 266 -275 148 -147 269 -271 269
-274 0 -3 -122 -6 -270 -6 -149 0 -270 -2 -270 -5 0 -3 181 -186 403 -407 221
-221 412 -412 425 -425 l22 -25 -362 -1 c-199 -1 -363 -3 -364 -5 -2 -2 121
-127 272 -279 l277 -276 -274 -1 c-150 -1 -274 -3 -276 -4 -3 -4 3262 -3270
3271 -3271 4 -1 571 563 1261 1253 l1254 1255 -140 140 -139 140 140 141 139
140 -179 179 c-99 99 -180 183 -180 186 0 4 255 261 566 573 l567 566 -273 1
c-151 0 -275 2 -277 3 -1 2 121 128 273 279 l276 276 -791 1 -792 1 -310 -310
c-171 -170 -314 -310 -318 -310 -8 0 -1324 1314 -1328 1327 -2 4 56 66 127
137 l131 130 307 -309 307 -309 780 -1 c429 0 785 1 791 2 6 2 -113 127 -263
277 -151 151 -270 276 -266 279 4 2 126 3 271 3 144 -1 262 2 262 5 0 9 -2182
2189 -2190 2189 -4 0 -339 -330 -744 -732z"/>
</g>
</svg>
